<?xml version="1.0" standalone="no"?>
<!DOCTYPE svg PUBLIC "-//W3C//DTD SVG 20010904//EN"
 "http://www.w3.org/TR/2001/REC-SVG-20010904/DTD/svg10.dtd">
<svg version="1.0" xmlns="http://www.w3.org/2000/svg"
 width="408.000000pt" height="408.000000pt" viewBox="0 0 408.000000 408.000000"
 preserveAspectRatio="xMidYMid meet">
<metadata>
Created by potrace 1.11, written by Peter Selinger 2001-2013
</metadata>
<g transform="translate(0.000000,408.000000) scale(0.100000,-0.100000)"
fill="#000000" stroke="none">
<path d="M1237 3144 c-735 -368 -787 -396 -777 -414 13 -25 11 -25 70 5 l50
25 0 -435 0 -435 1450 0 1450 0 0 435 0 435 65 -32 c56 -28 67 -31 75 -18 5 8
10 18 10 22 0 7 -1594 809 -1602 807 -2 0 -357 -178 -791 -395z m2196 -782 l2
-422 -1408 0 -1407 0 2 421 3 421 699 353 699 353 704 -351 703 -352 3 -423z"/>
<path d="M1788 3239 l-238 -119 0 -160 0 -160 490 0 490 0 0 160 0 160 -240
120 c-132 66 -246 120 -252 119 -7 0 -120 -54 -250 -120z m232 6 l0 -65 -95 0
c-84 0 -95 2 -95 18 0 12 28 32 93 64 50 26 93 47 95 47 1 1 2 -28 2 -64z
m230 -47 c0 -16 -11 -18 -95 -18 l-95 0 0 65 0 65 95 -47 c67 -33 95 -53 95
-65z m-453 -14 c-3 -3 -12 -4 -19 -1 -8 3 -5 6 6 6 11 1 17 -2 13 -5z m-7
-109 l0 -65 -95 0 -95 0 0 43 c0 41 2 44 43 64 26 14 62 22 95 22 l52 1 0 -65z
m230 0 l0 -65 -95 0 -95 0 0 65 0 65 95 0 95 0 0 -65z m230 0 l0 -65 -95 0
-95 0 0 65 0 65 95 0 95 0 0 -65z m190 43 c37 -21 40 -27 40 -65 l0 -43 -95 0
-95 0 0 65 0 65 56 0 c39 0 67 -7 94 -22z m-650 -203 l0 -65 -95 0 -95 0 0 65
0 65 95 0 95 0 0 -65z m230 0 l0 -65 -95 0 -95 0 0 65 0 65 95 0 95 0 0 -65z
m230 0 l0 -65 -95 0 -95 0 0 65 0 65 95 0 95 0 0 -65z m230 0 l0 -65 -95 0
-95 0 0 65 0 65 95 0 95 0 0 -65z"/>
<path d="M2870 2936 c0 -7 7 -19 15 -26 23 -19 23 -858 0 -866 -8 -4 -15 -15
-15 -25 0 -17 8 -19 95 -19 87 0 95 2 95 19 0 10 -7 21 -15 25 -12 4 -15 33
-15 167 l0 161 43 -7 c23 -4 46 -10 50 -15 4 -4 33 -74 63 -155 49 -134 53
-149 39 -165 -8 -9 -12 -20 -8 -23 3 -4 48 -7 100 -7 99 0 109 6 74 44 -14 16
-74 153 -128 294 -3 7 3 12 16 12 30 0 88 55 102 97 16 50 5 135 -26 199 -44
91 -109 139 -302 227 -94 42 -173 77 -177 77 -3 0 -6 -6 -6 -14z m335 -279
c60 -48 71 -139 21 -172 -22 -14 -31 -14 -110 6 l-86 21 0 113 0 113 71 -27
c39 -15 86 -39 104 -54z"/>
<path d="M1020 2872 c-190 -82 -300 -136 -300 -148 0 -8 7 -14 15 -14 23 0 23
-665 0 -674 -8 -3 -15 -12 -15 -21 0 -13 25 -15 183 -14 198 1 228 6 279 54
55 52 73 106 73 220 0 91 -3 104 -27 146 -17 28 -39 51 -58 59 l-31 13 25 26
c47 49 71 118 71 206 0 161 -70 208 -215 147z m60 -142 c42 -22 34 -124 -14
-169 -19 -18 -143 -61 -176 -61 -6 0 -10 35 -10 89 l0 88 83 31 c95 36 92 35
117 22z m10 -350 c46 -24 50 -146 7 -196 -25 -29 -79 -43 -164 -44 l-53 0 0
110 c0 105 1 110 23 115 117 27 158 31 187 15z"/>
<path d="M2747 2710 c-5 -19 -14 -20 -196 -20 -157 0 -191 -3 -191 -14 0 -8 7
-16 15 -20 13 -5 15 -47 15 -300 0 -252 -2 -295 -15 -300 -8 -3 -15 -12 -15
-21 0 -13 27 -15 196 -15 187 0 196 -1 201 -20 3 -11 12 -20 19 -20 11 0 14
22 14 100 0 79 -3 100 -14 100 -8 0 -16 -7 -20 -15 -4 -12 -28 -15 -126 -15
l-120 0 0 78 0 77 67 -2 c48 -1 70 -6 79 -17 26 -36 34 -17 34 78 0 95 -10
124 -30 86 -9 -17 -21 -20 -80 -20 l-70 0 0 70 0 70 116 0 c107 0 116 -1 121
-20 3 -11 12 -20 19 -20 11 0 14 22 14 100 0 78 -3 100 -14 100 -7 0 -16 -9
-19 -20z"/>
<path d="M1450 2680 c0 -6 5 -18 11 -28 8 -13 -6 -76 -66 -287 -42 -149 -86
-282 -96 -297 -10 -15 -19 -32 -19 -38 0 -12 156 -14 164 -1 3 5 -1 14 -9 21
-18 15 -19 40 -3 91 l11 39 93 0 93 0 12 -55 c9 -42 10 -58 1 -67 -30 -30 -13
-38 73 -38 88 0 100 7 71 39 -7 9 -48 144 -90 301 -69 253 -76 285 -62 296 36
26 17 34 -84 34 -61 0 -100 -4 -100 -10z m120 -284 l28 -106 -59 0 c-32 0 -59
3 -59 8 0 13 55 211 58 207 2 -1 16 -50 32 -109z"/>
<path d="M1840 2676 c0 -7 7 -19 15 -26 22 -19 22 -571 0 -590 -8 -7 -15 -19
-15 -26 0 -11 19 -14 84 -14 86 0 112 11 82 33 -12 9 -16 35 -17 115 -1 89 1
108 18 130 l19 25 68 -123 c57 -102 67 -127 57 -142 -21 -34 -13 -38 84 -38
103 0 115 8 70 45 -14 11 -65 93 -114 183 l-90 164 93 117 c52 65 101 121 110
124 9 4 16 13 16 22 0 12 -16 15 -95 15 -75 0 -95 -3 -95 -14 0 -8 5 -16 12
-18 9 -3 8 -10 -3 -24 -21 -30 -150 -194 -152 -194 -1 0 -1 46 1 102 2 72 8
108 18 119 22 24 8 29 -83 29 -64 0 -83 -3 -83 -14z"/>
<path d="M0 1325 l0 -415 2040 0 2040 0 0 415 0 415 -2040 0 -2040 0 0 -415z
m4035 0 l0 -375 -1722 0 -1723 0 0 350 0 350 -250 0 -250 0 0 -350 c0 -343 0
-350 -20 -350 -20 0 -20 7 -20 375 l0 375 1993 0 1992 0 0 -375z m-3495 -45
l0 -330 -200 0 -200 0 0 330 0 330 200 0 200 0 0 -330z"/>
<path d="M2920 1570 c0 -62 3 -80 14 -80 8 0 16 7 20 15 4 12 24 15 86 15 l80
0 0 -224 c0 -186 -3 -227 -15 -240 -30 -30 -17 -36 75 -36 70 0 90 3 90 14 0
8 -7 16 -15 20 -13 5 -15 40 -15 236 l0 230 80 0 c62 0 82 -3 86 -15 4 -8 12
-15 20 -15 11 0 14 18 14 80 0 62 -3 80 -14 80 -8 0 -16 -7 -20 -15 -4 -13
-39 -15 -226 -15 -187 0 -222 2 -226 15 -4 8 -12 15 -20 15 -11 0 -14 -18 -14
-80z"/>
<path d="M703 1602 c15 -16 17 -51 17 -284 0 -239 -2 -267 -17 -272 -11 -5
-13 -10 -6 -17 7 -7 75 -10 200 -7 178 3 191 4 238 28 115 58 125 209 20 271
l-34 20 34 30 c85 75 62 188 -47 234 -29 12 -79 15 -229 15 -185 0 -192 -1
-176 -18z m352 -107 c14 -13 25 -31 25 -40 0 -9 -11 -27 -25 -40 -22 -23 -32
-25 -115 -25 l-90 0 0 65 0 65 90 0 c83 0 93 -2 115 -25z m17 -232 c31 -31 30
-89 -1 -114 -19 -16 -40 -19 -122 -19 l-99 0 0 81 0 81 100 -4 c87 -3 102 -6
122 -25z"/>
<path d="M1370 1611 c0 -5 6 -11 14 -14 11 -5 15 -48 18 -224 4 -233 7 -251
60 -300 43 -41 97 -56 193 -56 130 0 190 28 226 108 16 35 19 68 19 251 0 179
2 213 15 218 8 3 15 10 15 16 0 6 -35 10 -90 10 -55 0 -90 -4 -90 -10 0 -6 7
-13 15 -16 13 -5 15 -38 15 -211 l0 -205 -29 -29 c-26 -25 -37 -29 -86 -29
-66 0 -112 21 -125 56 -6 14 -10 112 -10 219 0 162 2 194 15 199 8 3 15 10 15
16 0 6 -36 10 -95 10 -52 0 -95 -4 -95 -9z"/>
<path d="M2090 1610 c0 -6 7 -13 15 -16 23 -9 23 -532 0 -540 -8 -4 -15 -12
-15 -20 0 -11 20 -14 95 -14 75 0 95 3 95 14 0 8 -7 16 -15 20 -13 5 -15 44
-15 270 0 225 2 265 15 270 8 3 15 10 15 16 0 6 -36 10 -95 10 -59 0 -95 -4
-95 -10z"/>
<path d="M2450 1610 c0 -6 7 -13 15 -16 23 -9 23 -532 0 -540 -8 -4 -15 -12
-15 -20 0 -12 39 -14 220 -14 140 0 220 -4 220 -10 0 -5 7 -10 15 -10 12 0 15
15 15 74 0 71 -13 106 -26 72 -5 -14 -28 -16 -145 -16 l-139 0 0 229 c0 194 2
230 15 235 8 3 15 10 15 16 0 6 -36 10 -95 10 -59 0 -95 -4 -95 -10z"/>
<path d="M3754 1190 c-53 -21 -69 -88 -33 -134 22 -28 58 -34 105 -16 26 10
26 11 9 30 -15 17 -19 17 -32 5 -20 -21 -40 -19 -53 6 -25 45 10 96 49 72 18
-11 41 -1 41 18 0 5 -59 32 -64 28 -1 0 -11 -4 -22 -9z"/>
<path d="M3405 1111 l0 -80 63 -3 c57 -3 62 -1 62 17 0 18 -5 20 -41 17 l-41
-4 4 66 c3 65 2 66 -22 66 -25 0 -25 -1 -25 -79z"/>
<path d="M3555 1111 l0 -80 63 -3 c57 -3 62 -1 62 17 0 18 -5 20 -41 17 l-41
-4 4 66 c3 65 2 66 -22 66 -25 0 -25 -1 -25 -79z"/>
<path d="M200 1430 l0 -140 140 0 140 0 0 140 0 140 -140 0 -140 0 0 -140z
m80 70 c0 -49 -1 -50 -30 -50 -29 0 -30 1 -30 50 0 49 1 50 30 50 29 0 30 -1
30 -50z m90 0 c0 -49 -1 -50 -30 -50 -29 0 -30 1 -30 50 0 49 1 50 30 50 29 0
30 -1 30 -50z m84 -3 c1 -45 0 -47 -26 -47 -27 0 -28 2 -28 51 0 49 1 50 26
47 24 -3 27 -7 28 -51z m-174 -127 c0 -49 -1 -50 -30 -50 -29 0 -30 1 -30 50
0 49 1 50 30 50 29 0 30 -1 30 -50z m90 0 c0 -49 -1 -50 -30 -50 -29 0 -30 1
-30 50 0 49 1 50 30 50 29 0 30 -1 30 -50z m85 0 c0 -49 -1 -50 -30 -50 -29 0
-30 1 -30 50 0 49 1 50 30 50 29 0 30 -1 30 -50z"/>
<path d="M170 1225 c-18 -21 -5 -47 22 -43 26 3 37 36 16 49 -18 12 -24 11
-38 -6z"/>
<path d="M180 645 l0 -75 48 0 c63 0 98 19 94 51 -1 13 -2 36 -2 51 0 35 -24
48 -89 48 l-51 0 0 -75z m108 33 c-7 -20 -68 -23 -68 -4 0 12 10 16 36 16 24
0 34 -4 32 -12z m10 -53 c10 -10 -21 -25 -50 -25 -22 0 -28 5 -28 21 0 19 4
21 36 16 20 -3 39 -9 42 -12z"/>
<path d="M1290 645 l0 -75 65 0 c51 0 65 3 65 15 0 11 -12 15 -51 15 l-51 0 4
60 c4 53 2 60 -14 60 -16 0 -18 -9 -18 -75z"/>
<path d="M2627 648 c1 -54 5 -74 16 -76 11 -2 13 9 10 55 l-4 58 21 -25 c69
-79 82 -91 91 -88 6 2 11 36 12 76 2 61 -1 72 -14 72 -14 0 -16 -8 -12 -47 l5
-48 -47 48 c-67 69 -80 64 -78 -25z"/>
<path d="M3290 714 c0 -3 14 -25 31 -49 24 -33 30 -50 25 -69 -5 -22 -3 -26
14 -26 16 0 20 7 20 35 0 24 9 45 30 68 35 40 37 47 11 47 -11 0 -28 -14 -39
-32 l-21 -32 -18 32 c-10 17 -26 32 -35 32 -10 0 -18 -3 -18 -6z"/>
<path d="M403 690 c-22 -9 -43 -39 -43 -60 0 -20 49 -60 73 -60 55 0 92 70 56
105 -19 19 -60 26 -86 15z m62 -55 c0 -27 -3 -30 -30 -30 -21 0 -31 5 -33 18
-6 33 6 49 35 45 24 -3 28 -8 28 -33z"/>
<path d="M680 678 c0 -11 6 -15 20 -11 18 5 20 0 20 -47 0 -43 3 -51 17 -48
14 3 17 12 14 52 -3 47 -2 49 23 44 19 -4 26 -1 26 11 0 13 -11 16 -60 16 -49
0 -60 -3 -60 -17z"/>
<path d="M872 690 c-12 -5 -27 -21 -33 -34 -24 -53 46 -105 100 -75 43 25 41
87 -4 107 -30 14 -32 14 -63 2z m63 -55 c0 -26 -3 -30 -29 -30 -36 0 -56 26
-36 50 8 9 24 15 39 13 22 -2 26 -8 26 -33z"/>
<path d="M2300 687 c-14 -7 -29 -25 -35 -41 -8 -25 -6 -31 18 -52 31 -26 54
-30 90 -13 16 7 25 19 25 35 0 21 -5 24 -34 24 -37 0 -49 -25 -16 -33 11 -3 8
-5 -9 -6 -34 -1 -57 24 -42 47 12 21 49 27 68 12 10 -8 15 -8 20 0 16 26 -47
46 -85 27z"/>
<path d="M2885 692 l-50 -3 1 -57 2 -57 56 -3 c45 -2 56 0 56 13 0 11 -11 15
-40 15 -22 0 -40 5 -40 10 0 6 11 10 25 10 16 0 25 6 25 15 0 9 -9 15 -25 15
-14 0 -25 5 -25 11 0 6 15 9 37 7 21 -1 38 2 40 9 6 16 -5 18 -62 15z"/>
<path d="M3482 690 c-43 -18 -48 -78 -9 -105 31 -22 65 -18 92 10 30 29 31 46
8 73 -22 25 -60 35 -91 22z m67 -39 c14 -26 -8 -54 -39 -49 -25 3 -36 27 -26
54 8 20 53 17 65 -5z"/>
<path d="M550 630 l0 -60 60 0 c47 0 60 3 60 15 0 11 -12 15 -46 15 l-46 0 4
45 c3 38 0 45 -14 45 -15 0 -18 -9 -18 -60z"/>
<path d="M1020 630 c0 -48 3 -60 16 -60 13 0 15 8 12 41 l-4 41 39 -41 c52
-56 62 -53 62 19 0 48 -3 60 -16 60 -12 0 -14 -8 -11 -32 l5 -33 -29 25 c-16
14 -30 28 -32 33 -2 4 -12 7 -23 7 -17 0 -19 -8 -19 -60z"/>
<path d="M1477 635 c-15 -31 -27 -58 -27 -60 0 -12 31 -3 36 10 4 9 19 15 35
15 19 0 29 -5 29 -15 0 -8 9 -15 20 -15 25 0 25 -1 -7 65 -16 32 -34 55 -43
55 -9 0 -27 -23 -43 -55z m53 5 c0 -5 -4 -10 -10 -10 -5 0 -10 5 -10 10 0 6 5
10 10 10 6 0 10 -4 10 -10z"/>
<path d="M1630 630 c0 -47 3 -60 15 -60 11 0 15 11 15 42 l0 42 30 -29 c17
-16 30 -35 30 -42 0 -7 9 -13 20 -13 18 0 20 7 20 60 0 47 -3 60 -15 60 -10 0
-15 -10 -15 -32 l-1 -33 -29 33 c-16 17 -39 32 -50 32 -18 0 -20 -7 -20 -60z"/>
<path d="M1820 629 l0 -62 51 6 c61 8 79 20 79 58 0 41 -24 59 -81 59 l-49 0
0 -61z m86 27 c25 -19 8 -50 -30 -54 -24 -3 -26 0 -26 32 0 40 20 48 56 22z"/>
<path d="M1996 633 c1 -45 5 -59 18 -61 13 -3 16 7 16 57 0 51 -3 61 -17 61
-15 0 -18 -9 -17 -57z"/>
<path d="M2090 630 c0 -47 3 -60 15 -60 11 0 15 11 15 38 l1 37 34 -37 c50
-54 60 -50 60 22 0 41 -4 60 -12 60 -8 0 -13 -13 -13 -32 l0 -32 -33 32 c-52
50 -67 44 -67 -28z"/>
<path d="M3000 648 c11 -24 20 -51 20 -60 0 -21 40 -25 40 -5 1 6 7 26 14 42
l13 30 13 -42 c9 -30 19 -43 32 -43 11 0 18 7 18 20 0 12 9 39 19 60 l19 40
-24 0 c-14 0 -23 -3 -21 -7 3 -5 -1 -21 -8 -38 l-12 -30 -8 38 c-6 30 -12 37
-30 37 -18 0 -24 -7 -30 -37 l-8 -38 -15 38 c-9 24 -21 37 -33 37 -17 0 -17
-2 1 -42z"/>
<path d="M3630 629 c0 -52 2 -60 18 -57 11 2 16 11 14 26 -5 31 31 29 48 -3 7
-14 19 -25 27 -25 16 0 16 5 3 30 -7 14 -7 25 2 39 19 31 -5 51 -63 51 l-49 0
0 -61z m85 31 c4 -6 -7 -10 -24 -10 -17 0 -31 5 -31 10 0 6 11 10 24 10 14 0
28 -4 31 -10z"/>
<path d="M3800 629 c0 -52 2 -60 17 -57 11 2 18 12 18 27 0 36 21 36 41 2 10
-17 26 -31 36 -31 22 0 23 13 2 30 -8 8 -20 22 -26 33 -8 17 -6 23 13 38 21
16 22 19 6 19 -11 0 -33 -10 -50 -22 l-30 -22 5 22 c5 17 2 22 -13 22 -17 0
-19 -8 -19 -61z"/>
<path d="M2455 599 c-4 -5 -4 -13 -1 -16 3 -3 1 -12 -6 -20 -6 -7 -8 -16 -5
-20 10 -10 37 18 37 38 0 22 -16 34 -25 18z"/>
</g>
</svg>
